<?xml version="1.0" encoding="iso-8859-1"?>
<!-- Generator: Adobe Illustrator 19.0.0, SVG Export Plug-In . SVG Version: 6.00 Build 0)  -->
<svg version="1.1" id="Capa_1" xmlns="http://www.w3.org/2000/svg" xmlns:xlink="http://www.w3.org/1999/xlink" x="0px" y="0px"
	 viewBox="0 0 512 512" style="enable-background:new 0 0 512 512;" xml:space="preserve">
<path style="fill:#F96982;" d="M439.691,209.632c0,12.527-1.453,24.714-4.213,36.396c-0.68,2.884-1.442,5.738-2.277,8.561
	c-16.946,57.154-65.365,100.783-125.177,110.796c-8.55,1.432-17.317,2.174-26.259,2.174c-8.952,0-17.719-0.742-26.27-2.174
	c-36.674-6.14-69.063-24.91-92.531-51.705c-24.374-27.784-39.137-64.191-39.137-104.048c0-45.843,19.532-87.133,50.726-115.968
	c22.066-20.428,49.974-34.624,80.941-39.806c8.55-1.432,17.317-2.174,26.27-2.174c8.942,0,17.709,0.742,26.259,2.174
	c30.957,5.182,58.875,19.378,80.941,39.806c11.219,10.374,20.933,22.355,28.763,35.582
	C431.686,152.797,439.691,180.282,439.691,209.632z"/>
<g>
	<path style="fill:#ED3565;" d="M439.691,209.632c0,12.527-1.453,24.714-4.213,36.396H404.83c-5.872,0-10.631-4.76-10.631-10.632
		v-95.518c0-5.872,4.759-10.632,10.631-10.632h12.898C431.686,152.797,439.691,180.282,439.691,209.632z"/>
	<path style="fill:#ED3565;" d="M363.838,196.991c-3.42,1.113-7.005,1.669-10.652,1.669c0,0,0,0-0.01,0
		c-14.793,0-30.164-8.973-44.432-25.94c-10.518-12.496-19.893-28.927-26.98-47.079c-7.098,18.152-16.473,34.583-26.991,47.09
		c-14.268,16.967-29.638,25.93-44.432,25.93c0,0,0,0-0.01,0c-3.647,0-7.232-0.556-10.642-1.669
		c-20.14-6.552-31.565-31.008-30.555-65.427c0.35-12.032,2.205-24.92,5.419-37.9c22.066-20.428,49.974-34.624,80.941-39.806
		c8.55-1.432,17.317-2.174,26.27-2.174c8.942,0,17.709,0.742,26.259,2.174c30.957,5.182,58.875,19.378,80.941,39.806
		c3.224,12.98,5.079,25.868,5.419,37.911C395.393,165.983,383.978,190.439,363.838,196.991z"/>
	<path style="fill:#ED3565;" d="M433.2,254.589c-16.946,57.154-65.365,100.783-125.177,110.796
		c-8.55,1.432-17.317,2.174-26.259,2.174c-8.952,0-17.719-0.742-26.27-2.174c-36.674-6.14-69.063-24.91-92.531-51.705l22.293-22.283
		c9.91-9.921,23.097-15.381,37.128-15.381h86.247c18.595,0,34.089,13.516,37.179,31.235l44.473-44.483
		c7.335-7.335,17.08-11.373,27.454-11.373C423.146,251.395,428.389,252.497,433.2,254.589z"/>
	<path style="fill:#ED3565;" d="M281.764,380.951c-9.56,0-19.143-0.794-28.482-2.358l-11.18-1.873V42.523l11.18-1.873
		c9.34-1.564,18.923-2.358,28.482-2.358c9.554,0,19.133,0.794,28.472,2.358l11.18,1.873v334.196l-11.179,1.873
		C300.897,380.157,291.318,380.951,281.764,380.951z"/>
</g>
<path style="fill:#B8B9DD;" d="M308.023,53.858v311.527c-8.55,1.432-17.317,2.174-26.259,2.174c-8.952,0-17.719-0.742-26.27-2.174
	V53.858c8.55-1.432,17.317-2.174,26.27-2.174C290.706,51.684,299.473,52.426,308.023,53.858z"/>
<g>
	<path style="fill:#9697CD;" d="M308.023,53.858v117.987c-10.23-12.383-19.337-28.474-26.259-46.204
		c-6.933,17.729-16.04,33.821-26.27,46.214V53.858c8.55-1.432,17.317-2.174,26.27-2.174
		C290.706,51.684,299.473,52.426,308.023,53.858z"/>
	<path style="fill:#9697CD;" d="M308.023,276.016v89.368c-8.55,1.432-17.317,2.174-26.259,2.174c-8.952,0-17.719-0.742-26.27-2.174
		v-89.368H308.023z"/>
</g>
<path style="fill:#F995A1;" d="M204.249,53.097c-4.903,9.156-9.292,19.4-12.878,30.436c-15.693,48.292-10.117,93.387,12.455,100.722
	c22.572,7.335,53.592-25.867,69.285-74.16c6.645-20.448,9.475-40.321,8.818-56.999L204.249,53.097L204.249,53.097z"/>
<path style="fill:#F96982;" d="M218.743,150.117c-0.6,0-1.209-0.07-1.818-0.217c-4.148-1-6.7-5.174-5.7-9.322l6.557-27.194
	c1.001-4.15,5.177-6.7,9.322-5.7c4.148,1,6.7,5.174,5.7,9.322l-6.557,27.194C225.394,147.739,222.23,150.117,218.743,150.117z"/>
<path style="fill:#F995A1;" d="M359.271,53.097h-77.68c-0.657,16.678,2.173,36.551,8.818,56.999
	c15.693,48.292,46.713,81.495,69.285,74.16c22.572-7.335,28.148-52.43,12.455-100.722C368.562,72.497,364.174,62.253,359.271,53.097
	z"/>
<g>
	<path style="fill:#F96982;" d="M347.012,154.956c-3.475,0-6.632-2.36-7.497-5.886l-7.865-32.033
		c-1.018-4.144,1.517-8.328,5.661-9.345c4.142-1.021,8.328,1.516,9.346,5.661l7.865,32.033c1.018,4.144-1.517,8.328-5.661,9.345
		C348.241,154.882,347.621,154.956,347.012,154.956z"/>
	<path style="fill:#F96982;" d="M338.774,53.096v6.779c0,19.151-15.576,34.738-34.738,34.738H286.06
		c-0.154-0.68-0.309-1.36-0.464-2.04c-3.173-14.144-4.471-27.619-4.007-39.476L338.774,53.096L338.774,53.096z"/>
	<path style="fill:#F96982;" d="M381.042,134.027c-4.523,0.865-9.189,1.319-13.959,1.319c-26.733,0-51.54-14.453-64.726-37.725
		c-6.315-11.116-9.653-23.797-9.653-36.644c0-2.637,0.144-5.285,0.422-7.881h66.138c4.904,9.158,9.292,19.398,12.888,30.442
		c5.532,17.039,8.427,33.697,8.839,48.419C381.011,132.646,381.032,133.336,381.042,134.027z"/>
	<path style="fill:#F96982;" d="M277.921,92.572c-0.155,0.68-0.309,1.36-0.464,2.04H259.48c-19.151,0-34.738-15.587-34.738-34.738
		v-6.779h57.185C282.392,64.953,281.104,78.428,277.921,92.572z"/>
	<path style="fill:#F96982;" d="M270.813,60.976c0,12.846-3.338,25.528-9.653,36.654c-13.186,23.261-37.983,37.715-64.716,37.715
		c-4.77,0-9.436-0.453-13.959-1.319c0-0.69,0.021-1.38,0.041-2.071c0.412-14.721,3.307-31.379,8.849-48.419
		c3.585-11.044,7.974-21.284,12.877-30.442h66.138C270.669,55.681,270.813,58.329,270.813,60.976z"/>
</g>
<circle style="fill:#B8B9DD;" cx="196.44" cy="60.976" r="60.976"/>
<g>
	<path style="fill:#9697CD;" d="M237.912,59.37c-1.95,0-3.899-0.733-5.4-2.2c-0.319-0.298-12.149-11.088-38.441-12.221
		c-4.263-0.184-7.57-3.789-7.386-8.052s3.782-7.583,8.052-7.386c32.982,1.423,48.007,16.04,48.63,16.662
		c3.022,3.013,3.029,7.905,0.016,10.927C241.874,58.613,239.893,59.37,237.912,59.37z"/>
	<path style="fill:#9697CD;" d="M256.895,52.972c0.35,2.617,0.525,5.295,0.525,8.005c0,10.92-2.874,21.17-7.901,30.04
		c-0.34,0.608-0.701,1.205-1.071,1.803c-13.763-4.626-23.704-17.647-23.704-32.945V27.578c0-6.418,2.287-12.331,6.099-16.946
		C244.811,20.181,254.598,35.397,256.895,52.972z"/>
</g>
<path style="fill:#A0E0E8;" d="M427.434,82.927c-1.345-1.145-5.06-3.707-9.149-6.087c-2.42-1.409-5.489-1.007-7.469,0.973
	c-0.023,0.023-0.046,0.046-0.069,0.069c-2.123,2.123-2.418,5.473-0.682,7.923c2.872,4.053,5.965,7.708,7.354,8.89
	c5.424,4.616,8.535,11.343,8.535,18.457v36.08c0,4.23,3.26,7.92,7.488,8.046c4.376,0.131,7.964-3.376,7.964-7.723v-36.403
	C441.407,101.501,436.314,90.484,427.434,82.927z"/>
<circle style="fill:#B8B9DD;" cx="367.08" cy="60.976" r="60.976"/>
<g>
	<path style="fill:#9697CD;" d="M326.111,65.598c-1.868,0-3.738-0.67-5.219-2.031c-3.13-2.877-3.361-7.729-0.5-10.874
		c0.681-0.747,17.009-18.363,47.304-23.097c4.213-0.661,8.168,2.224,8.826,6.442c0.658,4.215-2.225,8.167-6.441,8.826
		c-24.672,3.854-38.152,18.114-38.285,18.257C330.272,64.764,328.194,65.598,326.111,65.598z"/>
	<path style="fill:#9697CD;" d="M338.774,27.578v32.296c0,15.298-9.941,28.32-23.704,32.945c-0.371-0.597-0.731-1.195-1.071-1.803
		c-5.027-8.87-7.901-19.12-7.901-30.04c0-2.709,0.175-5.388,0.525-8.005c2.297-17.575,12.084-32.791,26.064-42.34
		C336.487,15.247,338.774,21.16,338.774,27.578z"/>
</g>
<path style="fill:#6B6FB5;" d="M238.135,59.874V27.58c0-7.334,5.946-13.28,13.28-13.28h60.691c7.334,0,13.28,5.946,13.28,13.28
	v32.294c0,11.784-9.557,21.341-21.35,21.341h-44.551C247.691,81.215,238.135,71.658,238.135,59.874z"/>
<path style="fill:#C6F4F2;" d="M415.26,232.632h35.604c4.234,0,7.667-3.433,7.667-7.667v-74.656c0-4.234-3.433-7.667-7.667-7.667
	H415.26c-4.234,0-7.667,3.433-7.667,7.667v74.656C407.593,229.199,411.026,232.632,415.26,232.632z"/>
<path style="fill:#A0E0E8;" d="M433.309,214.677c-4.267,0-7.726-3.459-7.726-7.726v-11.645c0-4.268,3.459-7.726,7.726-7.726
	s7.726,3.459,7.726,7.726v11.645C441.035,211.218,437.576,214.677,433.309,214.677z"/>
<path style="fill:#FFD9AB;" d="M443.162,290.223c0,6.511-2.483,13.021-7.448,17.987l-78.551,78.551
	c-7.026,7.026-16.555,10.982-26.496,10.982h-96.064l-21.129,21.129l-21.768,21.747l-68.383-68.363l21.768-21.768l49.634-49.624
	c7.335-7.335,17.286-11.456,27.66-11.456h86.247c13.444,0,24.343,10.899,24.343,24.333v25.281l0.113-0.113l1.154-1.154l65.509-65.52
	c9.931-9.931,26.033-9.931,35.964,0C440.68,277.201,443.162,283.712,443.162,290.223z"/>
<g>
	<polygon style="fill:#F9B767;" points="213.473,418.872 191.705,440.619 123.322,372.256 145.09,350.488 	"/>
	<path style="fill:#F9B767;" d="M262.942,323.467h70.032v15.453h-70.032c-4.265,0-7.726-3.461-7.726-7.726
		C255.216,326.918,258.677,323.467,262.942,323.467z"/>
</g>
<path style="fill:#B8B9DD;" d="M209.523,447.986l-43.974,43.974l-17.112,17.112c-3.904,3.904-10.228,3.904-14.122,0l-77.918-77.918
	c-3.904-3.904-3.904-10.228,0-14.132l17.112-17.102l43.964-43.974c3.904-3.904,10.228-3.904,14.132,0l77.918,77.918
	C213.417,437.758,213.417,444.092,209.523,447.986z"/>
<path style="fill:#6B6FB5;" d="M177.282,448.093c-4.267,0-7.726-3.459-7.726-7.726v-0.716c0-4.268,3.459-7.726,7.726-7.726
	s7.726,3.459,7.726,7.726v0.716C185.009,444.634,181.549,448.093,177.282,448.093z"/>
<g>
</g>
<g>
</g>
<g>
</g>
<g>
</g>
<g>
</g>
<g>
</g>
<g>
</g>
<g>
</g>
<g>
</g>
<g>
</g>
<g>
</g>
<g>
</g>
<g>
</g>
<g>
</g>
<g>
</g>
</svg>
